<?xml version="1.0" encoding="UTF-8" standalone="no"?>
<!-- Generator: Adobe Illustrator 17.0.1, SVG Export Plug-In . SVG Version: 6.00 Build 0)  -->

<svg
   xmlns:dc="http://purl.org/dc/elements/1.1/"
   xmlns:cc="http://creativecommons.org/ns#"
   xmlns:rdf="http://www.w3.org/1999/02/22-rdf-syntax-ns#"
   xmlns:svg="http://www.w3.org/2000/svg"
   xmlns="http://www.w3.org/2000/svg"
   xmlns:sodipodi="http://sodipodi.sourceforge.net/DTD/sodipodi-0.dtd"
   xmlns:inkscape="http://www.inkscape.org/namespaces/inkscape"
   version="1.1"
   x="0px"
   y="0px"
   width="86px"
   height="86px"
   viewBox="0 0 86 86"
   enable-background="new 0 0 86 86"
   xml:space="preserve"
   id="svg2"
   inkscape:version="0.91 r13725"
   sodipodi:docname="harbour-gibrievida.svg"><metadata
     id="metadata27"><rdf:RDF><cc:Work
         rdf:about=""><dc:format>image/svg+xml</dc:format><dc:type
           rdf:resource="http://purl.org/dc/dcmitype/StillImage" /><dc:title></dc:title></cc:Work></rdf:RDF></metadata><defs
     id="defs25"><linearGradient
       y2="5.1016955"
       x2="82.784737"
       y1="80.533897"
       x1="3.2152548"
       gradientUnits="userSpaceOnUse"
       id="SVGID_1_"><stop
         id="stop7"
         style="stop-color:#358d84;stop-opacity:1"
         offset="0" /><stop
         id="stop9"
         style="stop-color:#00fd6d;stop-opacity:1"
         offset="1" /></linearGradient></defs><sodipodi:namedview
     pagecolor="#ffffff"
     bordercolor="#666666"
     borderopacity="1"
     objecttolerance="10"
     gridtolerance="10"
     guidetolerance="10"
     inkscape:pageopacity="0"
     inkscape:pageshadow="2"
     inkscape:window-width="1362"
     inkscape:window-height="923"
     id="namedview23"
     showgrid="false"
     inkscape:zoom="2.744186"
     inkscape:cx="43"
     inkscape:cy="43"
     inkscape:window-x="405"
     inkscape:window-y="114"
     inkscape:window-maximized="0"
     inkscape:current-layer="svg2" /><g
     id="Layer_2"
     display="none" /><path
     inkscape:connector-curvature="0"
     style="fill:url(#SVGID_1_)"
     id="path11"
     d="M 84.277,0.3 43,0.3 C 19.417,0.3 0.3,19.418 0.3,43 l 0,41.277 c 0,0.786 0.637,1.423 1.423,1.423 L 43,85.7 C 66.583,85.7 85.7,66.582 85.7,43 l 0,-41.277 C 85.7,0.937 85.063,0.3 84.277,0.3 Z"
     inkscape:export-filename="/home/buschmann/Dokumente/Entwicklung/Projekte/Gibrievida/sailfishos/icons/256x256/harbour-gibrievida.png"
     inkscape:export-xdpi="269.78925"
     inkscape:export-ydpi="269.78925" /><g
     transform="matrix(0.43822572,0,0,0.42486,11.4449,13.523213)"
     style="fill:#b2ff00;fill-opacity:1"
     id="g3"
     inkscape:export-filename="/home/buschmann/Dokumente/Entwicklung/Projekte/Gibrievida/sailfishos/icons/256x256/harbour-gibrievida.png"
     inkscape:export-xdpi="269.78925"
     inkscape:export-ydpi="269.78925"><path
       inkscape:connector-curvature="0"
       d="m 128.53,9.589 c -7.713,0 -14.106,5.678 -15.266,13.068 l -38.658,0 0,-17.85 40.858,0 0,-4.807 -86.523,0 0,4.807 40.858,0 0,17.85 -39.115,0 C 29.374,15.445 23.059,9.956 15.475,9.956 c -8.531,0 -15.471,6.94 -15.471,15.471 0,8.53 6.94,15.471 15.471,15.471 7.839,0 14.318,-5.865 15.321,-13.434 l 39.003,0 0,16.363 -40.858,0 0,4.807 39.099,0 -9.387,16.26 -18.026,0 c -1.115,-5.43 -5.931,-9.526 -11.686,-9.526 -6.578,0 -11.931,5.352 -11.931,11.929 0,6.577 5.353,11.931 11.931,11.931 5.755,0 10.571,-4.098 11.686,-9.527 l 15.25,0 -39.873,69.059 112.4,0 -39.877,-69.06 15.251,0 c 1.115,5.429 5.932,9.527 11.688,9.527 6.577,0 11.929,-5.354 11.929,-11.931 0,-6.577 -5.352,-11.929 -11.929,-11.929 -5.757,0 -10.573,4.096 -11.688,9.526 l -18.022,0 -9.387,-16.26 39.099,0 0,-4.807 -40.858,0 0,-16.362 38.662,0 c 1.16,7.39 7.553,13.067 15.266,13.067 8.53,0 15.471,-6.94 15.471,-15.472 0,-8.53 -6.94,-15.47 -15.47,-15.47 z M 15.47,36.091 c -5.88,0 -10.664,-4.784 -10.664,-10.664 0,-5.88 4.784,-10.665 10.664,-10.665 5.88,0 10.664,4.784 10.664,10.665 0,5.88 -4.783,10.664 -10.664,10.664 z M 28.936,74.42 c -3.928,0 -7.124,-3.196 -7.124,-7.125 0,-3.927 3.195,-7.122 7.124,-7.122 3.083,0 5.708,1.973 6.696,4.719 l -6.696,0 0,4.808 6.696,0 c -0.989,2.747 -3.613,4.72 -6.696,4.72 z m 86.523,-14.246 c 3.927,0 7.122,3.195 7.122,7.122 0,3.928 -3.195,7.125 -7.122,7.125 -3.083,0 -5.709,-1.974 -6.698,-4.72 l 6.696,0 0,-4.807 -6.696,0 c 0.99,-2.748 3.62,-4.72 6.7,-4.72 z M 69.794,55.2 l 0,9.693 -5.597,0 5.597,-9.693 z M 51.44,89.206 59.246,97.01 c -1.98,2.676 -3.167,5.974 -3.167,9.551 0,3.579 1.187,6.877 3.167,9.553 l -7.806,7.806 c -3.939,-4.703 -6.316,-10.757 -6.316,-17.356 0,-6.599 2.377,-12.653 6.316,-17.354 z m 32.067,17.354 c 0,2.25 -0.668,4.344 -1.805,6.106 l -6.106,-6.104 6.107,-6.107 c 1.136,1.76 1.804,3.85 1.804,6.1 z m -5.203,9.51 c -1.765,1.138 -3.856,1.805 -6.106,1.805 -2.25,0 -4.343,-0.667 -6.106,-1.805 l 6.106,-6.105 6.106,6.09 z M 72.197,103.16 66.09,97.053 c 1.764,-1.139 3.857,-1.805 6.107,-1.805 2.25,0 4.344,0.666 6.107,1.805 l -6.107,6.107 z m -3.398,3.4 -6.106,6.104 c -1.137,-1.763 -1.806,-3.856 -1.806,-6.106 0,-2.249 0.667,-4.343 1.805,-6.105 l 6.107,6.12 z m -6.154,12.95 c 2.677,1.98 5.975,3.166 9.553,3.166 3.577,0 6.875,-1.186 9.552,-3.166 l 7.808,7.809 c -4.704,3.938 -10.757,6.316 -17.357,6.316 -6.603,0 -12.657,-2.378 -17.36,-6.318 l 7.804,-7.81 z m 30.309,4.41 -7.807,-7.806 c 1.979,-2.676 3.166,-5.974 3.166,-9.553 0,-3.577 -1.187,-6.875 -3.165,-9.551 l 7.806,-7.807 c 3.939,4.704 6.317,10.757 6.317,17.359 0,6.6 -2.377,12.66 -6.317,17.36 z M 81.75,93.611 c -2.677,-1.981 -5.976,-3.166 -9.553,-3.166 -3.578,0 -6.876,1.185 -9.553,3.166 l -7.805,-7.805 c 4.704,-3.94 10.758,-6.318 17.36,-6.318 6.6,0 12.653,2.378 17.357,6.316 L 81.75,93.611 Z M 40.326,106.24 c -10e-4,0.107 -0.008,0.213 -0.008,0.321 0,11.632 6.266,21.826 15.598,27.394 l -31.591,0 16.001,-27.71 z m 48.155,27.72 c 9.331,-5.567 15.597,-15.762 15.597,-27.394 0,-0.108 -0.007,-0.214 -0.008,-0.319 l 16,27.713 -31.588,0 z M 88.417,79.129 C 83.662,76.308 78.118,74.681 72.2,74.681 c -5.922,0 -11.467,1.627 -16.223,4.45 l 5.445,-9.431 21.551,0 5.444,9.429 z m -13.816,-14.236 0,-9.693 5.597,9.693 -5.597,0 z m 53.928,-29.168 c -5.881,0 -10.666,-4.784 -10.666,-10.665 0,-5.88 4.785,-10.664 10.666,-10.664 5.881,0 10.664,4.784 10.664,10.664 0,5.88 -4.78,10.665 -10.66,10.665 z"
       id="path5"
       style="fill:#b2ff00;fill-opacity:1" /><path
       inkscape:connector-curvature="0"
       d="m 15.471,21.128 c -2.168,0 -3.932,1.764 -3.932,3.931 0,2.168 1.764,3.932 3.932,3.932 2.168,0 3.933,-1.764 3.933,-3.932 0,-2.167 -1.764,-3.931 -3.933,-3.931 z m 0,4.807 c -0.482,0 -0.875,-0.393 -0.875,-0.875 0,-0.482 0.392,-0.875 0.875,-0.875 0.483,0 0.875,0.393 0.875,0.875 0.001,0.482 -0.391,0.875 -0.875,0.875 z"
       id="path7"
       style="fill:#b2ff00;fill-opacity:1" /><path
       inkscape:connector-curvature="0"
       d="m 128.53,21.128 c -2.168,0 -3.932,1.764 -3.932,3.931 0,2.168 1.764,3.933 3.932,3.933 2.167,0 3.931,-1.765 3.931,-3.933 0,-2.167 -1.76,-3.931 -3.93,-3.931 z m 0,4.807 c -0.482,0 -0.876,-0.393 -0.876,-0.875 0,-0.482 0.394,-0.874 0.876,-0.874 0.482,0 0.875,0.392 0.875,0.874 0,0.482 -0.39,0.875 -0.87,0.875 z"
       id="path9"
       style="fill:#b2ff00;fill-opacity:1" /></g></svg>